# xmcd
#
# Track frame offsets: 
#        150
#        17863
#        30460
#        56683
#        69378
#        90742
#        109102
#        133838
#        148912
#        169870
#        194628
#        216585
#        239228
#        270615
#
# Disc length: 4455 seconds
#
# Revision: 1
# Processed by: cddbd v1.5.2PL0 Copyright (c) Steve Scherf et al.
# Submitted via: ExactAudioCopyFreeDBPlugin 1.0
#
DISCID=e111650e
DTITLE=Boyz II Men - Legacy:  The Greatest Hits Collection
DYEAR=2001
DGENRE=SMB
TTITLE0=Motownphilly
TTITLE1=It's so Hard to Say Goodbye to Yesterday
TTITLE2=End of the Road
TTITLE3=In the Still of the Night (I'll Remember)
TTITLE4=Hey Lover
TTITLE5=I'll Make Love to You
TTITLE6=On Bended Knee
TTITLE7=Water Runs Dry
TTITLE8=One Sweet Day
TTITLE9=Doin' Just Fine
TTITLE10=4 Seasons of Loneliness
TTITLE11=A Song for Mama
TTITLE12=Pass You by
TTITLE13=DATA
EXTD=
EXTT0=
EXTT1=
EXTT2=
EXTT3=
EXTT4=
EXTT5=
EXTT6=
EXTT7=
EXTT8=
EXTT9=
EXTT10=
EXTT11=
EXTT12=
EXTT13=
PLAYORDER=
